<?xml version="1.0" encoding="UTF-8"?><svg id="Capa_2" xmlns="http://www.w3.org/2000/svg" viewBox="0 0 287.54 132.08"><defs><style>.cls-1{fill:#fff;}.cls-2{fill:#00acbf;}.cls-3{fill:#eb6568;}.cls-4{fill:#888;}</style></defs><g id="Capa_1-2"><rect class="cls-1" width="287.54" height="132.08"/><g id="Capa_1-2"><path class="cls-2" d="m136.88,50.56l-12.5-15.37c-6.01-8.89,1.74-22.03,12.58-22.03h0c10.78,0,18.74,13.19,12.76,22.04l-12.83,15.37h0Z"/><path class="cls-3" d="m202.84,117.55h-119.46c-.77,0-1.4-.62-1.4-1.38s.63-1.38,1.4-1.38h119.46c.77,0,1.4.62,1.4,1.38s-.63,1.38-1.4,1.38Z"/><path class="cls-3" d="m61.19,46.69v6.7h-29.75c-2.04,0-3.73,1.55-3.73,3.43v3.48h26.2v6.7h-26.25v17.21h-7.22v-27.39c0-5.57,4.89-10.13,10.94-10.13,0,0,29.81,0,29.81,0Z"/><path class="cls-3" d="m110.78,84.21h-8.15l-3.73-6.7-8.91-16.08-8.91,16.08-3.73,6.7h-8.15l3.73-6.7,17.06-30.82,17.06,30.82s3.73,6.7,3.73,6.7Z"/><path class="cls-2" d="m157.57,46.91l-15.78,18.81-.87,1.02v17.69h-7.28v-17.58l-.99-1.13-15.78-18.81h9.2l11.18,13.35,11.18-13.35s9.14,0,9.14,0Z"/><path class="cls-3" d="m212.53,46.69v18.76c0,10.35-9.14,18.76-20.37,18.76s-20.37-8.42-20.37-18.76v-18.76h7.28v18.76c0,6.65,5.88,12.06,13.1,12.06s13.1-5.41,13.1-12.06v-18.76h7.28-.02Z"/><path class="cls-3" d="m264.74,77.57l3.73,6.7h-8.15l-3.73-6.7-3.9-7.02-.17-.32c-1.28-1.93-3.55-3.22-6.17-3.22h-7.28v17.26h-7.28v-37.52h25.73c3.03,0,5.76,1.13,7.74,2.95,1.98,1.88,3.2,4.4,3.2,7.18,0,4.07-2.62,7.61-6.4,9.22-.99.43-2.04.7-3.14.8l5.82,10.67h0Zm-7.22-17.26c.52,0,1.05-.11,1.51-.32,1.34-.54,2.21-1.77,2.21-3.11,0-1.23-.7-2.09-1.11-2.47-.47-.43-1.34-.96-2.62-.96h-18.45v6.91l18.45-.05h0Z"/><path class="cls-4" d="m50.4,104.71h-2.11l-.96-1.82-2.31-4.36-2.31,4.36-.96,1.82h-2.11l.96-1.82,4.42-8.36,4.42,8.36.96,1.82Z"/><path class="cls-4" d="m53.23,99.33c0,1.8,1.52,3.27,3.39,3.27h3.39v-1.95h-3.39v-1.82h5.28v5.58h-5.28c-2.91,0-5.28-2.28-5.28-5.09s2.37-5.09,5.28-5.09h5.28v1.82h-5.28c-1.87,0-3.39,1.47-3.39,3.27h0Z"/><path class="cls-4" d="m67.51,96.99v.94h6.78v1.82h-6.78v1.92c0,.51.44.93.96.93h7.7v1.82h-7.7c-1.57,0-2.83-1.24-2.83-2.75v-4.68c0-1.51,1.27-2.75,2.83-2.75h7.7v1.82h-7.7c-.53,0-.96.42-.96.93Z"/><path class="cls-4" d="m89.78,94.52v10.18l-1.88-1.4-6.78-5.05v6.44h-1.88v-10.15l1.88,1.4,6.78,5.05v-6.49h1.88v.02Z"/><path class="cls-4" d="m94.69,99.33c0,1.8,1.52,3.27,3.39,3.27h5.28v1.82h-5.28c-2.91,0-5.28-2.28-5.28-5.09s2.37-5.09,5.28-5.09h5.28v1.82h-5.28c-1.87,0-3.39,1.47-3.39,3.27Z"/><path class="cls-4" d="m106.95,104.55v-10.18h1.88v10.18h-1.88Z"/><path class="cls-4" d="m122.18,104.57h-2.11l-.96-1.82-2.31-4.36-2.31,4.36-.96,1.82h-2.11l.96-1.82,4.42-8.36,4.42,8.36.96,1.82Z"/><path class="cls-4" d="m138.34,94.39c2.91,0,5.28,2.27,5.28,5.08,0,1.25-.47,2.4-1.25,3.29-.09.1-.2.2-.3.31-.95.93-2.26,1.5-3.71,1.5h-5.28v-10.18h5.28-.02Zm3.39,5.09c0-1.8-1.52-3.27-3.39-3.27h-3.39v6.54h3.39c1.87,0,3.39-1.47,3.39-3.27Z"/><path class="cls-4" d="m145.4,97.12v.94h6.78v1.82h-6.78v1.92c0,.51.44.93.96.93h7.7v1.82h-7.7c-1.57,0-2.83-1.24-2.83-2.75v-4.68c0-1.51,1.27-2.75,2.83-2.75h7.7v1.82h-7.7c-.53,0-.96.42-.96.93h0Z"/><path class="cls-4" d="m181.49,94.55l-.96,1.82-4.42,8.36-4.42-8.36-.96-1.82h2.11l.96,1.82,2.31,4.36,2.31-4.36.96-1.82h2.11Z"/><path class="cls-4" d="m183.81,104.69v-10.18h1.88v10.18h-1.88Z"/><path class="cls-4" d="m199.31,104.28h-2.11l-.96-1.82-2.31-4.36-2.31,4.36-.96,1.82h-2.11l.96-1.82,4.42-8.36,4.42,8.36.96,1.82Z"/><path class="cls-4" d="m211.78,94.48l-.16,7.43c-.03,1.51-1.34,2.71-2.91,2.67l-4.85-.1c-1.57-.03-2.82-1.28-2.79-2.79l.04-1.9,1.88.04-.04,1.9c0,.51.42.94.95.95l4.85.1c.53.01.97-.4.98-.91l.16-7.43,1.88.04h0Z"/><path class="cls-4" d="m217.15,96.99v.94h6.78v1.82h-6.78v1.92c0,.51.44.93.96.93h7.7v1.82h-7.7c-1.57,0-2.83-1.24-2.83-2.75v-4.68c0-1.51,1.27-2.75,2.83-2.75h7.7v1.82h-7.7c-.53,0-.96.42-.96.93Z"/><path class="cls-4" d="m237.36,97.33v-.06c0-.51-.44-.93-.96-.93h-4.28c-.53,0-.96.42-.96.93v.06c0,.51.44.93.96.93h3.8c.98,0,1.85.41,2.46,1.05.05.04.08.09.12.13.47.55.75,1.27.75,2.04,0,1.77-1.49,3.21-3.33,3.21h-3.3c-1.84,0-3.33-1.44-3.33-3.21h1.88c0,.77.65,1.4,1.45,1.4h3.3c.8,0,1.46-.63,1.46-1.4s-.66-1.4-1.46-1.4h-3.8c-.77,0-1.46-.29-1.98-.77-.14-.13-.26-.28-.36-.44-.32-.44-.5-.97-.5-1.56v-.06c0-1.51,1.27-2.75,2.83-2.75h4.28c1.57,0,2.85,1.24,2.85,2.75v.06h-1.88v.02Z"/></g></g></svg>